<svg width="15" height="15" viewBox="0 0 15 15" fill="none" xmlns="http://www.w3.org/2000/svg">
<path d="M8.66701 10.5803H14.667C14.7096 10.5791 14.7519 10.5863 14.7917 10.6015C14.8315 10.6167 14.8679 10.6396 14.8988 10.6688C14.9297 10.6981 14.9546 10.7331 14.9719 10.772C14.9893 10.8109 14.9989 10.8528 15 10.8953V14.6843C14.999 14.727 14.9896 14.7691 14.9724 14.8081C14.9551 14.8472 14.9303 14.8824 14.8993 14.9118C14.8684 14.9412 14.8319 14.9642 14.792 14.9795C14.7522 14.9948 14.7097 15.002 14.667 15.0008H8.66701C8.62434 15.002 8.58185 14.9948 8.54198 14.9795C8.50212 14.9642 8.46567 14.9412 8.43472 14.9118C8.40378 14.8824 8.37895 14.8472 8.36167 14.8081C8.34438 14.7691 8.33499 14.727 8.33401 14.6843V10.8953C8.33518 10.8528 8.34472 10.8109 8.36209 10.772C8.37946 10.7331 8.40431 10.6981 8.43524 10.6688C8.46617 10.6396 8.50255 10.6167 8.54232 10.6015C8.58209 10.5863 8.62446 10.5791 8.66701 10.5803Z" fill="#001C72"/>
<path d="M8.66701 0.000859796H14.667C14.7097 -0.000337157 14.7522 0.00691171 14.792 0.0221898C14.8319 0.0374678 14.8684 0.0604738 14.8993 0.0898855C14.9303 0.119297 14.9551 0.154534 14.9724 0.193572C14.9896 0.23261 14.999 0.274679 15 0.31736V8.68436C14.999 8.72704 14.9896 8.76911 14.9724 8.80815C14.9551 8.84719 14.9303 8.88242 14.8993 8.91183C14.8684 8.94125 14.8319 8.96425 14.792 8.97953C14.7522 8.99481 14.7097 9.00206 14.667 9.00086H8.66701C8.62434 9.00206 8.58185 8.99481 8.54198 8.97953C8.50212 8.96425 8.46567 8.94125 8.43472 8.91183C8.40378 8.88242 8.37895 8.84719 8.36167 8.80815C8.34438 8.76911 8.33499 8.72704 8.33401 8.68436V0.31736C8.33499 0.274679 8.34438 0.23261 8.36167 0.193572C8.37895 0.154534 8.40378 0.119297 8.43472 0.0898855C8.46567 0.0604738 8.50212 0.0374678 8.54198 0.0221898C8.58185 0.00691171 8.62434 -0.000337157 8.66701 0.000859796Z" fill="#001C72"/>
<path d="M0.333 6.00086H6.333C6.37568 5.99966 6.41817 6.00691 6.45803 6.02219C6.4979 6.03747 6.53435 6.06047 6.56529 6.08989C6.59624 6.1193 6.62107 6.15453 6.63835 6.19357C6.65563 6.23261 6.66503 6.27468 6.666 6.31736V14.6844C6.66503 14.727 6.65563 14.7691 6.63835 14.8081C6.62107 14.8472 6.59624 14.8824 6.56529 14.9118C6.53435 14.9412 6.4979 14.9642 6.45803 14.9795C6.41817 14.9948 6.37568 15.0021 6.333 15.0009H0.333C0.290324 15.0021 0.247833 14.9948 0.207968 14.9795C0.168103 14.9642 0.131651 14.9412 0.100706 14.9118C0.0697607 14.8824 0.0449335 14.8472 0.027651 14.8081C0.0103685 14.7691 0.000971466 14.727 0 14.6844L0 6.31736C0.000971466 6.27468 0.0103685 6.23261 0.027651 6.19357C0.0449335 6.15453 0.0697607 6.1193 0.100706 6.08989C0.131651 6.06047 0.168103 6.03747 0.207968 6.02219C0.247833 6.00691 0.290324 5.99966 0.333 6.00086Z" fill="#001C72"/>
<path d="M0.333 0.000127374H6.333C6.37568 -0.00106958 6.41817 0.00617929 6.45803 0.0214573C6.4979 0.0367354 6.53435 0.0597414 6.56529 0.0891531C6.59624 0.118565 6.62107 0.153802 6.63835 0.19284C6.65563 0.231878 6.66503 0.273946 6.666 0.316627V4.10563C6.66483 4.14818 6.65529 4.19009 6.63793 4.22895C6.62056 4.26782 6.5957 4.30288 6.56477 4.33213C6.53385 4.36139 6.49746 4.38426 6.45769 4.39944C6.41792 4.41463 6.37555 4.42183 6.333 4.42063H0.333C0.290448 4.42183 0.248076 4.41463 0.208307 4.39944C0.168538 4.38426 0.132151 4.36139 0.101226 4.33213C0.0703005 4.30288 0.0454431 4.26782 0.0280743 4.22895C0.0107054 4.19009 0.00116561 4.14818 0 4.10563L0 0.316627C0.000971466 0.273946 0.0103685 0.231878 0.027651 0.19284C0.0449335 0.153802 0.0697607 0.118565 0.100706 0.0891531C0.131651 0.0597414 0.168103 0.0367354 0.207968 0.0214573C0.247833 0.00617929 0.290324 -0.00106958 0.333 0.000127374Z" fill="#001C72"/>
</svg>
