<svg width="16" height="15" viewBox="0 0 16 15" fill="none" xmlns="http://www.w3.org/2000/svg">
<path d="M1.97243 8.31451C2.41395 8.33756 2.85007 8.20894 3.20843 7.95001C3.2534 7.91882 3.30605 7.90052 3.36067 7.8971C3.41529 7.89367 3.46981 7.90526 3.51832 7.93059C3.56683 7.95593 3.60749 7.99405 3.63589 8.04084C3.66428 8.08762 3.67934 8.14129 3.67943 8.19601L3.67943 11.1435C3.67943 11.2231 3.71104 11.2994 3.7673 11.3556C3.82356 11.4119 3.89987 11.4435 3.97943 11.4435L7.84043 11.4435C7.89429 11.4448 7.94682 11.4605 7.9925 11.4891C8.03818 11.5176 8.07533 11.558 8.10004 11.6059C8.12474 11.6537 8.1361 11.7074 8.13291 11.7612C8.12973 11.815 8.11212 11.8669 8.08193 11.9115C7.82476 12.2743 7.69933 12.7141 7.72643 13.158C7.76061 13.6642 7.98968 14.1374 8.36551 14.4782C8.74134 14.8191 9.23466 15.0009 9.74177 14.9856C10.2489 14.9702 10.7303 14.7589 11.0848 14.396C11.4394 14.0331 11.6394 13.5468 11.6429 13.0395C11.6431 12.6348 11.5172 12.24 11.2829 11.91C11.2528 11.8649 11.2355 11.8124 11.2328 11.7582C11.2302 11.704 11.2423 11.6501 11.2678 11.6022C11.2934 11.5544 11.3314 11.5143 11.3779 11.4864C11.4244 11.4584 11.4777 11.4436 11.5319 11.4435L14.8319 11.4435C14.9115 11.4435 14.9878 11.4119 15.0441 11.3556C15.1003 11.2994 15.1319 11.2231 15.1319 11.1435L15.1319 0.300019C15.1319 0.220454 15.1003 0.144148 15.0441 0.0878868C14.9878 0.0316267 14.9115 1.90542e-05 14.8319 1.90473e-05L11.4899 1.87551e-05C11.4345 0.000225698 11.3802 0.0158011 11.333 0.045016C11.2859 0.0742318 11.2478 0.115943 11.2229 0.165517C11.198 0.21509 11.1874 0.270588 11.1922 0.325842C11.1969 0.381096 11.2169 0.433945 11.2499 0.478519C11.4711 0.768926 11.6067 1.11535 11.6415 1.47873C11.6763 1.8421 11.6089 2.20797 11.4468 2.53506C11.2848 2.86216 11.0346 3.13747 10.7244 3.32995C10.4142 3.52244 10.0565 3.62443 9.69143 3.62443C9.3264 3.62443 8.96862 3.52244 8.65846 3.32995C8.34829 3.13747 8.09808 2.86216 7.93603 2.53506C7.77399 2.20797 7.70656 1.8421 7.74135 1.47872C7.77614 1.11535 7.91177 0.768926 8.13293 0.478519C8.16601 0.433842 8.18602 0.380854 8.19073 0.325467C8.19545 0.27008 8.18468 0.214473 8.15964 0.164848C8.13459 0.115223 8.09625 0.0735324 8.04889 0.0444273C8.00153 0.015323 7.94702 -5.21265e-05 7.89143 1.84405e-05L3.97943 1.80985e-05C3.89987 1.80915e-05 3.82356 0.0316257 3.7673 0.0878858C3.71104 0.144147 3.67943 0.220453 3.67943 0.300018L3.67943 4.55252C3.67924 4.60689 3.66428 4.66019 3.63614 4.70672C3.608 4.75324 3.56775 4.79125 3.51968 4.81667C3.47162 4.84209 3.41755 4.85397 3.36325 4.85103C3.30896 4.8481 3.25648 4.83047 3.21143 4.80002C2.91552 4.58948 2.56669 4.46576 2.20424 4.4428C1.8418 4.41985 1.48014 4.49856 1.16003 4.67008C0.839912 4.8416 0.574057 5.0991 0.392412 5.41359C0.210768 5.72807 0.120554 6.08702 0.131935 6.45001C0.169555 6.92794 0.374904 7.37719 0.711693 7.71837C1.04848 8.05955 1.49503 8.27071 1.97243 8.31451Z" fill="#BC2E3E"/>
</svg>
