<svg width="14" height="15" viewBox="0 0 14 15" fill="none" xmlns="http://www.w3.org/2000/svg">
<path d="M6.56848 7.5C7.31016 7.5 8.03519 7.28006 8.65187 6.86801C9.26855 6.45595 9.7492 5.87028 10.033 5.18506C10.3169 4.49984 10.3911 3.74584 10.2464 3.01841C10.1017 2.29098 9.74458 1.6228 9.22013 1.09835C8.69569 0.573904 8.0275 0.216751 7.30007 0.0720569C6.57264 -0.0726377 5.81864 0.00162481 5.13342 0.285453C4.4482 0.569282 3.86253 1.04993 3.45047 1.66661C3.03842 2.2833 2.81848 3.00832 2.81848 3.75C2.81848 4.74456 3.21357 5.69839 3.91683 6.40165C4.62009 7.10491 5.57392 7.5 6.56848 7.5ZM9.19348 8.4375H8.70448C8.03476 8.74639 7.30601 8.90635 6.56848 8.90635C5.83096 8.90635 5.1022 8.74639 4.43248 8.4375H3.94348C2.89931 8.4379 1.89803 8.85287 1.15969 9.5912C0.421349 10.3295 0.006379 11.3308 0.00598145 12.375V13.593C0.00598123 13.9659 0.154012 14.3235 0.417552 14.5874C0.681091 14.8512 1.03858 14.9996 1.41148 15H11.7255C12.0984 14.9996 12.4559 14.8512 12.7194 14.5874C12.983 14.3235 13.131 13.9659 13.131 13.593V12.375C13.1306 11.3308 12.7156 10.3295 11.9773 9.5912C11.2389 8.85287 10.2376 8.4379 9.19348 8.4375Z" fill="#001C72"/>
</svg>
