<svg width="15" height="15" viewBox="0 0 15 15" fill="none" xmlns="http://www.w3.org/2000/svg">
<g clip-path="url(#clip0)">
<path d="M6.01199 0C4.92449 0 3.65849 1.2435 3.65849 2.511C3.65849 3.6255 4.21199 4.719 5.25149 4.719C6.37949 4.719 7.08449 3.861 7.08449 2.79C7.08449 1.8 6.88799 0 6.01199 0Z" fill="#001C72"/>
<path d="M1.626 1.82703C1.05 1.82703 0 2.78103 0 4.01103C0 4.97103 0.804 5.96103 1.8225 5.96103C2.5725 5.96103 2.913 5.06103 2.913 3.94653C2.913 2.83203 2.226 1.82703 1.626 1.82703Z" fill="#001C72"/>
<path d="M9.16799 0C10.2555 0 11.5215 1.2435 11.5215 2.511C11.5215 3.6255 10.968 4.719 9.92849 4.719C8.80049 4.716 8.09999 3.861 8.09999 2.787C8.09999 1.8 8.29199 0 9.16799 0Z" fill="#001C72"/>
<path d="M13.374 1.82703C13.95 1.82703 15 2.78103 15 4.01103C15 4.96803 14.196 5.96103 13.1775 5.96103C12.435 5.96103 12.087 5.06103 12.087 3.94653C12.087 2.83203 12.774 1.82703 13.374 1.82703Z" fill="#001C72"/>
<path d="M13.059 9.31049C13.1196 9.06505 13.1508 8.81329 13.152 8.56049C13.1481 8.13113 13.0596 7.70675 12.8916 7.3116C12.7236 6.91645 12.4794 6.55827 12.173 6.25752C11.8665 5.95678 11.5038 5.71936 11.1056 5.55884C10.7073 5.39832 10.2814 5.31784 9.852 5.32199C9.39806 5.32184 8.94893 5.41496 8.53246 5.59558C8.116 5.7762 7.7411 6.04047 7.431 6.37199C7.12125 6.04044 6.74662 5.77614 6.33039 5.59551C5.91416 5.41488 5.46523 5.32178 5.0115 5.32199C4.58215 5.31784 4.15618 5.39832 3.75794 5.55884C3.3597 5.71936 2.99698 5.95678 2.69053 6.25752C2.38407 6.55827 2.13987 6.91645 1.97189 7.3116C1.8039 7.70675 1.71542 8.13113 1.7115 8.56049C1.71272 8.81329 1.74394 9.06505 1.8045 9.31049C1.815 9.35249 1.8285 9.39299 1.8405 9.43499C1.8525 9.47699 1.86 9.50999 1.872 9.54749C2.922 12.9975 7.431 15 7.431 15C7.431 15 11.943 13.0005 12.9915 9.54749C13.0035 9.50999 13.0125 9.47249 13.023 9.43499C13.0335 9.39749 13.05 9.35249 13.059 9.31049Z" fill="#001C72"/>
</g>
<defs>
<clipPath id="clip0">
<rect width="15" height="15" fill="white"/>
</clipPath>
</defs>
</svg>
