<svg width="15" height="15" viewBox="0 0 15 15" fill="none" xmlns="http://www.w3.org/2000/svg">
<path d="M12.572 2.42801C12.5811 2.05352 12.5014 1.68219 12.3392 1.34448C12.1771 1.00677 11.9373 0.712294 11.6393 0.485198C11.3414 0.258103 10.9939 0.104857 10.6253 0.0380252C10.2567 -0.0288063 9.87754 -0.0073197 9.51885 0.100723C9.16016 0.208766 8.83219 0.400289 8.56183 0.659585C8.29147 0.918882 8.08642 1.23857 7.96349 1.59243C7.84056 1.94629 7.80326 2.32426 7.85464 2.69532C7.90602 3.06639 8.04462 3.41999 8.25907 3.72714L3.72714 8.25907C3.41999 8.04462 3.06639 7.90602 2.69532 7.85464C2.32426 7.80326 1.94629 7.84056 1.59243 7.96349C1.23857 8.08642 0.918882 8.29147 0.659585 8.56183C0.400289 8.83219 0.208766 9.16016 0.100723 9.51885C-0.0073197 9.87754 -0.0288063 10.2567 0.0380252 10.6253C0.104857 10.9939 0.258103 11.3414 0.485198 11.6393C0.712294 11.9373 1.00677 12.1771 1.34448 12.3392C1.68219 12.5014 2.05352 12.5811 2.42801 12.572C2.41888 12.9465 2.49864 13.3178 2.66076 13.6555C2.82287 13.9932 3.06273 14.2877 3.36065 14.5148C3.65857 14.7419 4.00608 14.8951 4.37468 14.962C4.74327 15.0288 5.12246 15.0073 5.48115 14.8993C5.83984 14.7912 6.16781 14.5997 6.43817 14.3404C6.70853 14.0811 6.91358 13.7614 7.03651 13.4076C7.15944 13.0537 7.19674 12.6757 7.14536 12.3047C7.09398 11.9336 6.95538 11.58 6.74093 11.2729L11.2729 6.74093C11.58 6.95538 11.9336 7.09398 12.3047 7.14536C12.6757 7.19674 13.0537 7.15944 13.4076 7.03651C13.7614 6.91358 14.0811 6.70853 14.3404 6.43817C14.5997 6.16781 14.7912 5.83984 14.8993 5.48115C15.0073 5.12246 15.0288 4.74327 14.962 4.37468C14.8951 4.00608 14.7419 3.65857 14.5148 3.36065C14.2877 3.06273 13.9932 2.82287 13.6555 2.66076C13.3178 2.49864 12.9465 2.41888 12.572 2.42801Z" fill="#001C72"/>
</svg>
