<svg width="16" height="15" viewBox="0 0 16 15" fill="none" xmlns="http://www.w3.org/2000/svg">
<g clip-path="url(#clip0)">
<path d="M14.5053 5.28783L8.58022 7.79158C8.51533 7.82155 8.46045 7.8696 8.42216 7.92996C8.38387 7.99031 8.36379 8.06043 8.36433 8.13191V14.6282C8.36272 14.6899 8.37706 14.7511 8.40596 14.8057C8.43486 14.8604 8.47734 14.9066 8.52932 14.9401C8.58129 14.9735 8.641 14.993 8.7027 14.9967C8.7644 15.0003 8.826 14.9881 8.88157 14.961L14.8051 11.946C14.8659 11.9143 14.9169 11.8665 14.9523 11.8078C14.9877 11.7491 15.0063 11.6817 15.006 11.6132V5.62816C15.0076 5.56791 14.994 5.50824 14.9665 5.45461C14.9389 5.40099 14.8984 5.35514 14.8486 5.32126C14.7987 5.28738 14.7412 5.26657 14.6812 5.26073C14.6212 5.25489 14.5607 5.26421 14.5053 5.28783Z" fill="#001C72"/>
<path d="M6.74213 7.86209L0.51724 5.14545C0.461674 5.11839 0.400073 5.1061 0.338376 5.10976C0.276678 5.11343 0.216965 5.13292 0.16499 5.16636C0.113015 5.19981 0.0705305 5.24608 0.0416322 5.30071C0.0127338 5.35535 -0.0016045 5.4165 -9.16931e-07 5.47829V11.976C-0.000405062 12.0477 0.0198971 12.1179 0.0584635 12.1783C0.09703 12.2387 0.152218 12.2866 0.21739 12.3164L6.44078 14.9685C6.49622 14.9922 6.55671 15.0015 6.6167 14.9956C6.67668 14.9898 6.73424 14.969 6.78409 14.9351C6.83393 14.9012 6.87447 14.8554 6.90198 14.8018C6.92949 14.7481 6.94309 14.6885 6.94153 14.6282V8.19493C6.94232 8.12644 6.92411 8.05907 6.88891 8.00031C6.8537 7.94155 6.8029 7.8937 6.74213 7.86209Z" fill="#001C72"/>
<path d="M14.7616 3.27587L7.65966 0.0329894C7.61042 0.0107627 7.55702 -0.000732422 7.50299 -0.000732422C7.44897 -0.000732422 7.39556 0.0107627 7.34632 0.0329894L0.230878 3.27587C0.16082 3.30913 0.101794 3.36183 0.0608206 3.42768C0.0198477 3.49352 -0.0013467 3.56976 -0.000241142 3.6473C0.000864419 3.72485 0.0242234 3.80045 0.0670569 3.8651C0.10989 3.92976 0.170395 3.98074 0.241373 4.012L7.35082 6.99701C7.39687 7.0163 7.44631 7.02624 7.49625 7.02624C7.54618 7.02624 7.59562 7.0163 7.64167 6.99701L14.7511 4.012C14.8221 3.98074 14.8826 3.92976 14.9254 3.8651C14.9683 3.80045 14.9916 3.72485 14.9927 3.6473C14.9938 3.56976 14.9726 3.49352 14.9317 3.42768C14.8907 3.36183 14.8317 3.30913 14.7616 3.27587Z" fill="#001C72"/>
</g>
<defs>
<clipPath id="clip0">
<rect width="15.006" height="15" fill="white"/>
</clipPath>
</defs>
</svg>
