<svg width="20" height="15" viewBox="0 0 20 15" fill="none" xmlns="http://www.w3.org/2000/svg">
<path d="M19.362 8.163L12.8625 14.7255C12.732 14.8558 12.5657 14.9443 12.3848 14.9799C12.2038 15.0154 12.0164 14.9964 11.8463 14.9251C11.6762 14.8539 11.5311 14.7337 11.4295 14.5799C11.3278 14.426 11.2743 14.2454 11.2755 14.061V10.311H6.0135C5.89074 10.3112 5.76915 10.2871 5.65575 10.2401C5.54235 10.193 5.43939 10.124 5.35279 10.037C5.26619 9.95001 5.19768 9.84671 5.15121 9.73309C5.10473 9.61946 5.08121 9.49776 5.082 9.375V5.625C5.08121 5.50242 5.10462 5.38089 5.15089 5.26738C5.19716 5.15387 5.26538 5.0506 5.35164 4.96351C5.4379 4.87642 5.5405 4.8072 5.65356 4.75984C5.76662 4.71247 5.88792 4.68789 6.0105 4.6875H11.2755V0.9375C11.2746 0.753229 11.3284 0.57283 11.4301 0.419195C11.5319 0.26556 11.677 0.145615 11.847 0.0745805C12.017 0.00354652 12.2043 -0.015374 12.3851 0.0202199C12.5659 0.0558138 12.7321 0.144318 12.8625 0.2745L19.362 6.8355C19.5351 7.01309 19.6319 7.25127 19.6319 7.49925C19.6319 7.74723 19.5351 7.98541 19.362 8.163ZM7.5615 14.529V12.9675C7.5615 12.8439 7.51261 12.7253 7.42549 12.6376C7.33837 12.5499 7.2201 12.5003 7.0965 12.4995H3.846C3.6827 12.4987 3.52116 12.4658 3.37059 12.4026C3.22002 12.3393 3.08338 12.2471 2.96847 12.131C2.85355 12.015 2.76262 11.8775 2.70086 11.7263C2.63909 11.5752 2.60771 11.4133 2.6085 11.25V3.75C2.60751 3.58665 2.63876 3.4247 2.70045 3.27344C2.76215 3.12218 2.85307 2.98458 2.96802 2.86851C3.08298 2.75245 3.2197 2.6602 3.37035 2.59705C3.52101 2.5339 3.68265 2.50109 3.846 2.5005H7.0965C7.22024 2.49931 7.33851 2.44933 7.42558 2.36141C7.51266 2.27349 7.56151 2.15474 7.5615 2.031V0.4695C7.5619 0.345637 7.51318 0.226667 7.42602 0.138662C7.33886 0.0506563 7.22036 0.000793353 7.0965 0L3.846 0C3.35591 0.0023581 2.87108 0.101226 2.41919 0.290958C1.96731 0.480691 1.55722 0.757572 1.21234 1.10579C0.867461 1.45401 0.594548 1.86675 0.409183 2.32045C0.223819 2.77414 0.129632 3.25991 0.132002 3.75V11.25C0.127614 12.2397 0.516353 13.1906 1.21278 13.8938C1.90921 14.5969 2.85633 14.9948 3.846 15H7.0965C7.2205 14.9988 7.33899 14.9486 7.42611 14.8604C7.51323 14.7721 7.5619 14.653 7.5615 14.529Z" fill="#001C72"/>
</svg>
